<svg xmlns="http://www.w3.org/2000/svg" xmlns:svg="http://www.w3.org/2000/svg" id="svg2" width="450mm" height="200mm" version="1.1" viewBox="0 0 1594.488 708.661"><defs id="defs4"><marker id="marker14083" orient="auto" overflow="visible" refX="0" refY="0"><path id="path14085" fill="#000" fill-opacity="1" fill-rule="evenodd" stroke="#000" stroke-opacity="1" stroke-width="1pt" d="M 0,0 5,-5 -12.5,0 5,5 0,0 Z" transform="matrix(-0.4,0,0,-0.4,-4,0)"/></marker><marker id="marker13971" orient="auto" overflow="visible" refX="0" refY="0"><path id="path13973" fill="#000" fill-opacity="1" fill-rule="evenodd" stroke="#000" stroke-opacity="1" stroke-width="1pt" d="M 0,0 5,-5 -12.5,0 5,5 0,0 Z" transform="matrix(-0.4,0,0,-0.4,-4,0)"/></marker><marker id="marker12013" orient="auto" overflow="visible" refX="0" refY="0"><path id="path12015" fill="#000" fill-opacity="1" fill-rule="evenodd" stroke="#000" stroke-opacity="1" stroke-width="1pt" d="M 0,0 5,-5 -12.5,0 5,5 0,0 Z" transform="matrix(-0.4,0,0,-0.4,-4,0)"/></marker><marker id="marker10554" orient="auto" overflow="visible" refX="0" refY="0"><path id="path10556" fill="#000" fill-opacity="1" fill-rule="evenodd" stroke="#000" stroke-opacity="1" stroke-width="1pt" d="M 0,0 5,-5 -12.5,0 5,5 0,0 Z" transform="matrix(-0.4,0,0,-0.4,-4,0)"/></marker><marker id="marker9236" orient="auto" overflow="visible" refX="0" refY="0"><path id="path9238" fill="#000" fill-opacity="1" fill-rule="evenodd" stroke="#000" stroke-opacity="1" stroke-width="1pt" d="M 0,0 5,-5 -12.5,0 5,5 0,0 Z" transform="matrix(-0.4,0,0,-0.4,-4,0)"/></marker><marker id="marker7292" orient="auto" overflow="visible" refX="0" refY="0"><path id="path7294" fill="#000" fill-opacity="1" fill-rule="evenodd" stroke="#000" stroke-opacity="1" stroke-width="1pt" d="M 0,0 5,-5 -12.5,0 5,5 0,0 Z" transform="matrix(-0.4,0,0,-0.4,-4,0)"/></marker><marker id="marker5947" orient="auto" overflow="visible" refX="0" refY="0"><path id="path5949" fill="#000" fill-opacity="1" fill-rule="evenodd" stroke="#000" stroke-opacity="1" stroke-width="1pt" d="M 0,0 5,-5 -12.5,0 5,5 0,0 Z" transform="matrix(-0.4,0,0,-0.4,-4,0)"/></marker><marker id="marker5875" orient="auto" overflow="visible" refX="0" refY="0"><path id="path5877" fill="#000" fill-opacity="1" fill-rule="evenodd" stroke="#000" stroke-opacity="1" stroke-width="1pt" d="M 0,0 5,-5 -12.5,0 5,5 0,0 Z" transform="matrix(-0.4,0,0,-0.4,-4,0)"/></marker><marker id="Arrow1Mend" orient="auto" overflow="visible" refX="0" refY="0"><path id="path4178" fill="#000" fill-opacity="1" fill-rule="evenodd" stroke="#000" stroke-opacity="1" stroke-width="1pt" d="M 0,0 5,-5 -12.5,0 5,5 0,0 Z" transform="matrix(-0.4,0,0,-0.4,-4,0)"/></marker><marker id="marker4705-3" orient="auto" overflow="visible" refX="0" refY="0"><path id="path4707-7" fill="#000" fill-opacity="1" fill-rule="evenodd" stroke="#000" stroke-opacity="1" stroke-width="1pt" d="M 0,0 5,-5 -12.5,0 5,5 0,0 Z" transform="matrix(-0.4,0,0,-0.4,-4,0)"/></marker><marker id="Arrow1Mend-6" orient="auto" overflow="visible" refX="0" refY="0"><path id="path4178-4" fill="#000" fill-opacity="1" fill-rule="evenodd" stroke="#000" stroke-opacity="1" stroke-width="1pt" d="M 0,0 5,-5 -12.5,0 5,5 0,0 Z" transform="matrix(-0.4,0,0,-0.4,-4,0)"/></marker><marker id="marker5543-4" orient="auto" overflow="visible" refX="0" refY="0"><path id="path5545-6" fill="#000" fill-opacity="1" fill-rule="evenodd" stroke="#000" stroke-opacity="1" stroke-width="1pt" d="M 0,0 5,-5 -12.5,0 5,5 0,0 Z" transform="matrix(-0.4,0,0,-0.4,-4,0)"/></marker><marker id="marker7292-0" orient="auto" overflow="visible" refX="0" refY="0"><path id="path7294-9" fill="#000" fill-opacity="1" fill-rule="evenodd" stroke="#000" stroke-opacity="1" stroke-width="1pt" d="M 0,0 5,-5 -12.5,0 5,5 0,0 Z" transform="matrix(-0.4,0,0,-0.4,-4,0)"/></marker><marker id="marker10554-8" orient="auto" overflow="visible" refX="0" refY="0"><path id="path10556-0" fill="#000" fill-opacity="1" fill-rule="evenodd" stroke="#000" stroke-opacity="1" stroke-width="1pt" d="M 0,0 5,-5 -12.5,0 5,5 0,0 Z" transform="matrix(-0.4,0,0,-0.4,-4,0)"/></marker></defs><metadata id="metadata7"/><g id="layer1" transform="translate(0,-343.70078)"><g id="g5841" transform="translate(-139.62449,0.02030475)"><g id="g8753" transform="translate(82.121833,-36)"><g id="g5792" transform="translate(-605.86817,-0.0203002)"><rect id="rect4136-5" width="199.786" height="97.02" x="873.578" y="682.662" fill="#87aade" stroke="#214478" stroke-dasharray="none" stroke-miterlimit="4" stroke-width="3" rx="11.37" ry="12.577"/><circle id="path4138-2" cx="976.542" cy="1016.678" r="53.429" fill="#aade87" stroke="#2d5016" stroke-dasharray="none" stroke-miterlimit="4" stroke-width="3"/><circle id="circle4140-0" cx="979.899" cy="443.265" r="53.429" fill="#e9afc6" stroke="#a04" stroke-dasharray="none" stroke-miterlimit="4" stroke-width="3"/><path id="path4445-9" fill="none" fill-rule="evenodd" stroke="#000" stroke-dasharray="none" stroke-linecap="butt" stroke-linejoin="miter" stroke-miterlimit="4" stroke-opacity="1" stroke-width="2.667" marker-end="url(#marker9236)" d="m 975.8031,956.36239 0.6425,-166.41047"/><path id="path4703-0" fill="none" fill-rule="evenodd" stroke="#000" stroke-dasharray="none" stroke-linecap="butt" stroke-linejoin="miter" stroke-miterlimit="4" stroke-opacity="1" stroke-width="2.667" marker-end="url(#marker5875)" d="M 976.0294,674.23472 975.6617,512.87501"/><text id="text5275-9" x="941.042" y="1024.361" fill="#000" fill-opacity="1" stroke="none" stroke-linecap="butt" stroke-linejoin="miter" stroke-opacity="1" stroke-width="1" font-family="DejaVu Sans" font-size="40" font-stretch="normal" font-style="normal" font-variant="normal" font-weight="normal" letter-spacing="0" word-spacing="0" xml:space="preserve" style="line-height:125%;-inkscape-font-specification:'DejaVu Sans'"><tspan id="tspan5277-9" x="941.042" y="1024.361" font-size="43.75">x<tspan id="tspan8697" baseline-shift="sub" font-size="65%">t-1</tspan></tspan></text><text id="text5283-4" x="941.328" y="741.238" fill="#000" fill-opacity="1" stroke="none" stroke-linecap="butt" stroke-linejoin="miter" stroke-opacity="1" stroke-width="1" font-family="DejaVu Sans" font-size="40" font-stretch="normal" font-style="normal" font-variant="normal" font-weight="normal" letter-spacing="0" word-spacing="0" xml:space="preserve" style="line-height:125%;-inkscape-font-specification:'DejaVu Sans'"><tspan id="tspan5285-5" x="941.328" y="741.238" font-size="43.75">h<tspan id="tspan8693" baseline-shift="sub" font-size="65%">t-1</tspan></tspan></text><text id="text5287-1" x="947.613" y="455.218" fill="#000" fill-opacity="1" stroke="none" stroke-linecap="butt" stroke-linejoin="miter" stroke-opacity="1" stroke-width="1" font-family="DejaVu Sans" font-size="40" font-stretch="normal" font-style="normal" font-variant="normal" font-weight="normal" letter-spacing="0" word-spacing="0" xml:space="preserve" style="line-height:125%;-inkscape-font-specification:'DejaVu Sans'"><tspan id="tspan5289-0" x="947.613" y="455.218" font-size="43.75">o<tspan id="tspan8695" baseline-shift="sub" font-size="65%">t-1</tspan></tspan></text><path id="path5945" fill="none" fill-rule="evenodd" stroke="#000" stroke-dasharray="none" stroke-linecap="butt" stroke-linejoin="miter" stroke-miterlimit="4" stroke-opacity="1" stroke-width="2.667" marker-end="url(#marker5947)" d="m 1093.8174,729.20238 62.3679,-0.13235"/><path id="path7290-8" fill="none" fill-rule="evenodd" stroke="#000" stroke-dasharray="none" stroke-linecap="butt" stroke-linejoin="miter" stroke-miterlimit="4" stroke-opacity="1" stroke-width="2.667" marker-end="url(#marker7292-0)" d="m 794.14493,729.00685 62.3679,-0.13235"/><rect id="rect10536" width="579.639" height="334.275" x="1173.575" y="563.588" fill="#87aade" stroke="#214478" stroke-dasharray="none" stroke-miterlimit="4" stroke-width="2.964" opacity=".7" rx="11.371" ry="12.275"/><circle id="circle10538" cx="1231.436" cy="1022.739" r="53.429" fill="#aade87" stroke="#2d5016" stroke-dasharray="none" stroke-miterlimit="4" stroke-width="3"/><text id="text10540" x="1211.936" y="1032.421" fill="#000" fill-opacity="1" stroke="none" stroke-linecap="butt" stroke-linejoin="miter" stroke-opacity="1" stroke-width="1" font-family="DejaVu Sans" font-size="40" font-stretch="normal" font-style="normal" font-variant="normal" font-weight="normal" letter-spacing="0" word-spacing="0" xml:space="preserve" style="line-height:125%;-inkscape-font-specification:'DejaVu Sans'"><tspan id="tspan10542" x="1211.936" y="1032.421" font-size="43.75">x<tspan id="tspan10544" baseline-shift="sub" font-size="65%">t</tspan></tspan></text><path id="path10552" fill="none" fill-rule="evenodd" stroke="#000" stroke-dasharray="none" stroke-linecap="butt" stroke-linejoin="miter" stroke-miterlimit="4" stroke-opacity="1" stroke-width="2.667" marker-end="url(#marker10554)" d="m 1233.6662,962.4233 -0.3677,-46.2023"/><ellipse id="circle4140-0-7" cx="1673.498" cy="442.793" fill="#e9afc6" stroke="#a04" stroke-dasharray="none" stroke-miterlimit="4" stroke-width="3" rx="53.429" ry="53.429"/><text id="text5287-1-9" x="1653.212" y="452.747" fill="#000" fill-opacity="1" stroke="none" stroke-linecap="butt" stroke-linejoin="miter" stroke-opacity="1" stroke-width="1" font-family="DejaVu Sans" font-size="40" font-stretch="normal" font-style="normal" font-variant="normal" font-weight="normal" letter-spacing="0" word-spacing="0" xml:space="preserve" style="line-height:125%;-inkscape-font-specification:'DejaVu Sans'"><tspan id="tspan5289-0-9" x="1653.212" y="452.747" font-size="43.75">o<tspan id="tspan8695-3" baseline-shift="sub" font-size="65%">t</tspan></tspan></text><path id="path12011" fill="none" fill-rule="evenodd" stroke="#000" stroke-dasharray="none" stroke-linecap="butt" stroke-linejoin="miter" stroke-miterlimit="4" stroke-opacity="1" stroke-width="2.667" marker-end="url(#marker12013)" d="M 1674.6357,558.4233 1674.268,512.221"/><rect id="rect13951" width="199.786" height="97.02" x="1844.334" y="686.764" fill="#87aade" stroke="#214478" stroke-dasharray="none" stroke-miterlimit="4" stroke-width="3" rx="11.37" ry="12.577"/><text id="text13953" x="1904.084" y="745.34" fill="#000" fill-opacity="1" stroke="none" stroke-linecap="butt" stroke-linejoin="miter" stroke-opacity="1" stroke-width="1" font-family="DejaVu Sans" font-size="40" font-stretch="normal" font-style="normal" font-variant="normal" font-weight="normal" letter-spacing="0" word-spacing="0" xml:space="preserve" style="line-height:125%;-inkscape-font-specification:'DejaVu Sans'"><tspan id="tspan13955" x="1904.084" y="745.34" font-size="43.75">h<tspan id="tspan13959" baseline-shift="sub" font-size="65%">t+1</tspan></tspan></text><path id="path13961" fill="none" fill-rule="evenodd" stroke="#000" stroke-dasharray="none" stroke-linecap="butt" stroke-linejoin="miter" stroke-miterlimit="4" stroke-opacity="1" stroke-width="2.667" marker-end="url(#marker14083)" d="m 2064.5741,733.30391 62.3679,-0.13235"/><path id="path13963" fill="none" fill-rule="evenodd" stroke="#000" stroke-dasharray="none" stroke-linecap="butt" stroke-linejoin="miter" stroke-miterlimit="4" stroke-opacity="1" stroke-width="2.667" marker-end="url(#marker13971)" d="m 1764.9016,733.10838 62.3679,-0.13235"/><circle id="circle14205" cx="1943.258" cy="1018.759" r="53.429" fill="#aade87" stroke="#2d5016" stroke-dasharray="none" stroke-miterlimit="4" stroke-width="3"/><circle id="circle14207" cx="1946.616" cy="445.346" r="53.429" fill="#e9afc6" stroke="#a04" stroke-dasharray="none" stroke-miterlimit="4" stroke-width="3"/><path id="path14209" fill="none" fill-rule="evenodd" stroke="#000" stroke-dasharray="none" stroke-linecap="butt" stroke-linejoin="miter" stroke-miterlimit="4" stroke-opacity="1" stroke-width="2.667" marker-end="url(#marker9236)" d="m 1942.5192,958.44361 0.6425,-166.41047"/><path id="path14211" fill="none" fill-rule="evenodd" stroke="#000" stroke-dasharray="none" stroke-linecap="butt" stroke-linejoin="miter" stroke-miterlimit="4" stroke-opacity="1" stroke-width="2.667" marker-end="url(#marker5875)" d="m 1942.7455,676.31594 -0.3677,-161.35971"/><text id="text14213" x="1907.758" y="1026.442" fill="#000" fill-opacity="1" stroke="none" stroke-linecap="butt" stroke-linejoin="miter" stroke-opacity="1" stroke-width="1" font-family="DejaVu Sans" font-size="40" font-stretch="normal" font-style="normal" font-variant="normal" font-weight="normal" letter-spacing="0" word-spacing="0" xml:space="preserve" style="line-height:125%;-inkscape-font-specification:'DejaVu Sans'"><tspan id="tspan14215" x="1907.758" y="1026.442" font-size="43.75">x<tspan id="tspan14217" baseline-shift="sub" font-size="65%">t+1</tspan></tspan></text><text id="text14219" x="1908.33" y="455.299" fill="#000" fill-opacity="1" stroke="none" stroke-linecap="butt" stroke-linejoin="miter" stroke-opacity="1" stroke-width="1" font-family="DejaVu Sans" font-size="40" font-stretch="normal" font-style="normal" font-variant="normal" font-weight="normal" letter-spacing="0" word-spacing="0" xml:space="preserve" style="line-height:125%;-inkscape-font-specification:'DejaVu Sans'"><tspan id="tspan14221" x="1908.33" y="455.299" font-size="43.75">o<tspan id="tspan14223" baseline-shift="sub" font-size="65%">t+1</tspan></tspan></text><path id="path15655" fill="none" fill-rule="evenodd" stroke="#ff7f2a" stroke-dasharray="none" stroke-linecap="butt" stroke-linejoin="miter" stroke-miterlimit="4" stroke-opacity="1" stroke-width="3" d="m 1210.0851,992.21929 0.044,-135.5074 c 0,0 -1.6268,-20.37859 9.8965,-32.27579 10.932,-11.28675 18.5691,-14.88249 42.8191,-15.5298 7.4068,-0.01 89.8385,-0.01 103.0374,0.11593 38.99,-0.60746 54.5208,-9.6727 59.4811,-17.96681 4.3861,-7.33395 4.9288,-12.94361 4.6393,-24.35837"/><path id="path15659" fill="none" fill-rule="evenodd" stroke="#ff7f2a" stroke-dasharray="none" stroke-linecap="butt" stroke-linejoin="miter" stroke-miterlimit="4" stroke-opacity="1" stroke-width="3" d="m 1041.5137,701.505 c 0,0 109.04,0.15116 122.9817,-0.0157 20.0783,-0.24027 20.7133,-18.0185 20.5409,-32.76075 -0.4681,-40.02914 -2.5599,-65.95823 18.5169,-66.01561 l 444.0393,0.61472 79.3577,-0.14457 c 0,0 15.9816,-1.6717 15.466,17.40308 -0.5155,19.07477 0,60.83305 0,60.83305 0,0 0,17.52817 9.2797,18.0437 9.2796,0.51553 109.8087,0 109.8087,0"/><text id="text5283-4-5" x="1174.104" y="554.212" fill="#000" fill-opacity="1" stroke="none" stroke-linecap="butt" stroke-linejoin="miter" stroke-opacity="1" stroke-width="1" font-family="DejaVu Sans" font-size="40" font-stretch="normal" font-style="normal" font-variant="normal" font-weight="normal" letter-spacing="0" word-spacing="0" xml:space="preserve" style="line-height:125%;-inkscape-font-specification:'DejaVu Sans'"><tspan id="tspan5285-5-3" x="1174.104" y="554.212" font-size="43.75">GRU unit</tspan></text><path id="path15655-3" fill="none" fill-rule="evenodd" stroke="#ff7f2a" stroke-dasharray="none" stroke-linecap="butt" stroke-linejoin="miter" stroke-miterlimit="4" stroke-opacity="1" stroke-width="3" d="m 1373.4623,808.45965 c 7.4068,-0.01 89.8385,-0.01 103.0374,0.11593 38.99,-0.60746 54.5208,-9.6727 59.4811,-17.96681 4.3861,-7.33395 4.9288,-12.94361 4.6393,-24.35837"/><path id="path4360" fill="none" fill-rule="evenodd" stroke="#ff7f2a" stroke-dasharray="none" stroke-linecap="butt" stroke-linejoin="miter" stroke-miterlimit="4" stroke-opacity="1" stroke-width="3" d="m 1210.0851,913.28723 0.075,-29.10429 c 0,0 3.7678,-11.9313 16.2759,-18.61554 7.6593,-4.0931 24.0638,-7.36576 39.7106,-8.25888 4.0235,-0.22966 17.1312,-0.52706 26.4919,-0.4962 20.7465,0.0684 107.1051,0.15404 116.91,0.24759 l 146.8667,0.32686 c 79.8813,-0.50411 109.9057,-14.61806 109.2164,-51.03127"/></g><rect id="rect15681" width="62.143" height="41.429" x="793.231" y="725.714" fill="#ffb959" fill-opacity="1" stroke="#ff7f2a" stroke-dasharray="none" stroke-miterlimit="4" stroke-opacity="1" stroke-width="3" opacity="1" rx="5" ry="5"/><text stroke-opacity="1" style="line-height:125%" id="text15683" x="811.802" y="758.046" fill="#7d6d2d" fill-opacity="1" fill-rule="evenodd" stroke="none" stroke-linecap="butt" stroke-linejoin="miter" stroke-width="1" font-family="sans-serif" font-size="40" font-style="normal" font-weight="normal" letter-spacing="0" word-spacing="0" xml:space="preserve"><tspan id="tspan15685" x="811.802" y="758.046" fill="#7d6d2d" fill-opacity="1" fill-rule="evenodd" stroke="none" stroke-opacity="1">σ</tspan></text><g id="g4405" transform="translate(18,14)"><rect id="rect15687" width="80.434" height="41.032" x="1001.556" y="751.913" fill="#ffb959" fill-opacity="1" stroke="#ff7f2a" stroke-dasharray="none" stroke-miterlimit="4" stroke-opacity="1" stroke-width="3.397" opacity="1" rx="6.472" ry="4.952"/><text stroke-opacity="1" style="line-height:125%" id="text15689" x="1012.572" y="781.163" fill="#7d6d2d" fill-opacity="1" fill-rule="evenodd" stroke="none" stroke-linecap="butt" stroke-linejoin="miter" stroke-width="1" font-family="sans-serif" font-size="29.558" font-style="normal" font-weight="normal" letter-spacing="0" word-spacing="0" xml:space="preserve"><tspan id="tspan15691" x="1012.572" y="781.163" fill="#7d6d2d" fill-opacity="1" fill-rule="evenodd" stroke="none" stroke-opacity="1" font-family="sans-serif" font-stretch="normal" font-style="normal" font-variant="normal" font-weight="normal" letter-spacing="-2.29" style="-inkscape-font-specification:sans-serif">tanh</tspan></text></g><g id="g4410" transform="translate(13.083698,0.72907554)"><ellipse id="ellipse4261" cx="1019.555" cy="719.246" fill="#ffcc80" fill-opacity="1" fill-rule="evenodd" stroke="#ff7f2a" stroke-dasharray="none" stroke-miterlimit="4" stroke-opacity="1" stroke-width="2.775" opacity="1" rx="21.112" ry="21.112" transform="matrix(0.99921665,-0.03957374,0.03957609,0.99921656,0,0)"/><path id="path4263" fill="none" fill-rule="evenodd" stroke="#ff7f2a" stroke-dasharray="none" stroke-linecap="butt" stroke-linejoin="miter" stroke-miterlimit="4" stroke-opacity="1" stroke-width="2.775" d="m 1031.4962,663.30267 30.4514,29.26648"/><path id="path4265" fill="none" fill-rule="evenodd" stroke="#ff7f2a" stroke-dasharray="none" stroke-linecap="butt" stroke-linejoin="miter" stroke-miterlimit="4" stroke-opacity="1" stroke-width="2.775" d="m 1032.5083,693.16811 29.6075,-29.49682"/></g><ellipse id="ellipse4267" cx="1193.29" cy="-249.356" fill="#ffcc80" fill-opacity="1" fill-rule="evenodd" stroke="#ff7f2a" stroke-dasharray="none" stroke-miterlimit="4" stroke-opacity="1" stroke-width="2.775" opacity="1" rx="21.112" ry="21.112" transform="matrix(0.74976679,0.66170217,-0.66170036,0.74976839,0,0)"/><path id="path4269" fill="none" fill-rule="evenodd" stroke="#ff7f2a" stroke-dasharray="none" stroke-linecap="butt" stroke-linejoin="miter" stroke-miterlimit="4" stroke-opacity="1" stroke-width="2.775" d="m 1060.2612,580.83928 -0.3754,42.23359"/><path id="path4271" fill="none" fill-rule="evenodd" stroke="#ff7f2a" stroke-dasharray="none" stroke-linecap="butt" stroke-linejoin="miter" stroke-miterlimit="4" stroke-opacity="1" stroke-width="2.775" d="m 943.97216,602.82066 41.79317,0.0177"/><path id="path4306" fill="none" fill-rule="evenodd" stroke="#ff7f2a" stroke-dasharray="none" stroke-linecap="butt" stroke-linejoin="miter" stroke-miterlimit="4" stroke-opacity="1" stroke-width="2.984" d="m 775.59932,857.24583 c -1.41969,-0.43683 -6.59969,-0.53433 -15.69179,-2.8496 -3.92839,-1.00035 -10.73666,-3.73853 -13.68027,-5.19933 -6.63389,-3.29214 -6.88428,-8.54305 -7.17378,-12.36242 -0.46058,-13.04612 0.0904,-14.9374 0.11366,-20.48571 0,0 8.46558,-0.14086 8.46173,-7.66823 -0.004,-7.24587 -8.53041,-7.79434 -8.53041,-7.79434 0.25264,-63.10424 0.69415,-152.13162 0.11723,-160.15636 -0.76558,-10.6489 -2.36441,-16.55144 -11.97437,-25.44012 -9.60995,-8.88867 -21.57461,-10.43844 -53.89817,-12.33974"/><path id="path4308" fill="none" fill-rule="evenodd" stroke="#ff7f2a" stroke-dasharray="none" stroke-linecap="butt" stroke-linejoin="miter" stroke-miterlimit="4" stroke-opacity="1" stroke-width="3" d="m 824.31021,725.45863 -0.25777,-7.4568 c 0.30944,-11.80623 -0.17062,-39.12853 -25.00341,-39.18061 l -36.00246,-0.0755"/><path id="path4310" fill="none" fill-rule="evenodd" stroke="#ff7f2a" stroke-dasharray="none" stroke-linecap="butt" stroke-linejoin="miter" stroke-miterlimit="4" stroke-opacity="1" stroke-width="3" d="m 1059.5483,765.36055 0,-65.55342"/><path id="path4312" fill="none" fill-rule="evenodd" stroke="#ff7f2a" stroke-dasharray="none" stroke-linecap="butt" stroke-linejoin="miter" stroke-miterlimit="4" stroke-opacity="1" stroke-width="3" d="m 1059.7842,657.94208 0.5156,-34.02526"/><circle id="path4332" cx="433.05" cy="702.208" r="6" fill="#ff7f2a" fill-opacity="1" fill-rule="evenodd" stroke="none" stroke-dasharray="none" stroke-miterlimit="4" stroke-opacity="1" stroke-width="3" opacity="1"/><circle id="circle4340" cx="1256.874" cy="700.146" r="6" fill="#ff7f2a" fill-opacity="1" fill-rule="evenodd" stroke="none" stroke-dasharray="none" stroke-miterlimit="4" stroke-opacity="1" stroke-width="3" opacity="1"/><circle id="circle4342" cx="1103.276" cy="452.803" r="6" fill="#ff7f2a" fill-opacity="1" fill-rule="evenodd" stroke="none" stroke-dasharray="none" stroke-miterlimit="4" stroke-opacity="1" stroke-width="3" opacity="1"/><circle id="circle4344" cx="604.208" cy="994" r="6" fill="#ff7f2a" fill-opacity="1" fill-rule="evenodd" stroke="none" stroke-dasharray="none" stroke-miterlimit="4" stroke-opacity="1" stroke-width="3" opacity="1"/><text id="text4346" x="502.946" y="687.887" fill="#000" fill-opacity="1" stroke="none" stroke-linecap="butt" stroke-linejoin="miter" stroke-opacity="1" stroke-width="1" font-family="sans-serif" font-size="32.941" font-style="normal" font-weight="normal" letter-spacing="0" word-spacing="0" xml:space="preserve" style="line-height:125%"><tspan id="tspan4348" x="502.946" y="687.887" fill="#ff7f2a" fill-opacity="1">h<tspan id="tspan4350" fill="#ff7f2a" fill-opacity="1" baseline-shift="sub" font-size="21.411">t-1</tspan></tspan></text><text id="text4366" x="570.233" y="936.467" fill="#000" fill-opacity="1" stroke="none" stroke-linecap="butt" stroke-linejoin="miter" stroke-opacity="1" stroke-width="1" font-family="sans-serif" font-size="32.941" font-style="normal" font-weight="normal" letter-spacing="0" word-spacing="0" xml:space="preserve" style="line-height:125%"><tspan id="tspan4368" x="570.233" y="936.467" fill="#ff7f2a" fill-opacity="1">x<tspan id="tspan4370" fill="#ff7f2a" fill-opacity="1" baseline-shift="sub" font-size="21.411">t</tspan></tspan></text><text id="text4378" x="1156.973" y="687.964" fill="#000" fill-opacity="1" stroke="none" stroke-linecap="butt" stroke-linejoin="miter" stroke-opacity="1" stroke-width="1" font-family="sans-serif" font-size="32.941" font-style="normal" font-weight="normal" letter-spacing="0" word-spacing="0" xml:space="preserve" style="line-height:125%"><tspan id="tspan4380" x="1156.973" y="687.964" fill="#ff7f2a" fill-opacity="1">h<tspan id="tspan4382" fill="#ff7f2a" fill-opacity="1" baseline-shift="sub" font-size="21.411">t</tspan></tspan></text><text id="text15669-3" x="776.262" y="655.898" fill="#7d6d2d" fill-opacity="1" fill-rule="evenodd" stroke="none" stroke-linecap="butt" stroke-linejoin="miter" stroke-opacity="1" stroke-width="1" font-family="sans-serif" font-size="40" font-style="normal" font-weight="normal" letter-spacing="0" word-spacing="0" xml:space="preserve" style="line-height:125%"><tspan id="tspan15671-6" x="776.262" y="655.898" fill="#7d6d2d" fill-opacity="1" fill-rule="evenodd" stroke="none" stroke-opacity="1">R<tspan id="tspan4326" baseline-shift="sub" font-size="65%">t</tspan></tspan></text><text id="text4342" x="1111.76" y="548.632" fill="#000" fill-opacity="1" stroke="none" stroke-linecap="butt" stroke-linejoin="miter" stroke-opacity="1" stroke-width="1" font-family="sans-serif" font-size="32.941" font-style="normal" font-weight="normal" letter-spacing="0" word-spacing="0" xml:space="preserve" style="line-height:125%"><tspan id="tspan4344" x="1111.76" y="548.632" fill="#ff7f2a" fill-opacity="1">h<tspan id="tspan4346" fill="#ff7f2a" fill-opacity="1" baseline-shift="sub" font-size="21.411">t</tspan></tspan></text><path id="path5078" fill="none" fill-rule="evenodd" stroke="#ff7f2a" stroke-dasharray="none" stroke-linecap="butt" stroke-linejoin="miter" stroke-miterlimit="4" stroke-opacity="1" stroke-width="3" d="m 1083.6062,603.20421 c 2.2157,0.26391 5.589,-0.30251 7.801,-0.87789 2.6478,-0.68875 5.4434,-3.00489 7.3983,-4.75501 4.8893,-4.37707 4.6761,-13.53949 4.6612,-21.02569 -0.085,-42.8401 -0.2687,-120.28797 -0.2715,-120.86601"/><path id="path4293" fill="none" fill-rule="evenodd" stroke="#ff7f2a" stroke-dasharray="none" stroke-linecap="butt" stroke-linejoin="miter" stroke-miterlimit="4" stroke-opacity="1" stroke-width="2.984" d="m 712.63019,808.86244 c -32.87155,0.78461 -34.13991,-3.4348 -43.73684,-12.33753 -9.59694,-8.90273 -10.09189,-15.89962 -10.84191,-26.54963 0.24712,-55.66565 0.24913,-94.74136 0.0756,-128.15183 -0.76561,-10.6489 -1.81761,-17.82732 -11.42757,-26.716 -9.60995,-8.88867 -17.20016,-13.35474 -50.07052,-12.52201"/><rect id="rect4305" width="62.143" height="41.429" x="901.231" y="725.714" fill="#ffb959" fill-opacity="1" stroke="#ff7f2a" stroke-dasharray="none" stroke-miterlimit="4" stroke-opacity="1" stroke-width="3" opacity="1" rx="5" ry="5"/><text id="text4307" x="919.802" y="758.046" fill="#7d6d2d" fill-opacity="1" fill-rule="evenodd" stroke="none" stroke-linecap="butt" stroke-linejoin="miter" stroke-opacity="1" stroke-width="1" font-family="sans-serif" font-size="40" font-style="normal" font-weight="normal" letter-spacing="0" word-spacing="0" xml:space="preserve" style="line-height:125%"><tspan id="tspan4309" x="919.802" y="758.046" fill="#7d6d2d" fill-opacity="1" fill-rule="evenodd" stroke="none" stroke-opacity="1">σ</tspan></text><path id="path4311" fill="none" fill-rule="evenodd" stroke="#ff7f2a" stroke-dasharray="none" stroke-linecap="butt" stroke-linejoin="miter" stroke-miterlimit="4" stroke-opacity="1" stroke-width="3" d="m 932.64289,725.45863 0.25777,-7.4568 c -0.30944,-11.80623 0.17069,-39.1021 25.00341,-39.18061 l 81.53503,-0.25777"/><ellipse id="ellipse4327" cx="712.157" cy="707.247" fill="#ffcc80" fill-opacity="1" fill-rule="evenodd" stroke="#ff7f2a" stroke-dasharray="none" stroke-miterlimit="4" stroke-opacity="1" stroke-width="2.775" opacity="1" rx="21.112" ry="21.112" transform="matrix(0.99921665,-0.03957374,0.03957609,0.99921656,0,0)"/><path id="path4329" fill="none" fill-rule="evenodd" stroke="#ff7f2a" stroke-dasharray="none" stroke-linecap="butt" stroke-linejoin="miter" stroke-miterlimit="4" stroke-opacity="1" stroke-width="2.775" d="m 723.86074,663.47998 30.4514,29.26648"/><path id="path4331" fill="none" fill-rule="evenodd" stroke="#ff7f2a" stroke-dasharray="none" stroke-linecap="butt" stroke-linejoin="miter" stroke-miterlimit="4" stroke-opacity="1" stroke-width="2.775" d="m 724.87284,693.34542 29.6075,-29.49682"/><g id="g4398" transform="translate(36,32)"><g id="g4417" transform="translate(5.4581511,0.36453777)"><ellipse id="ellipse4327-3" cx="911.734" cy="682.629" fill="#ffcc80" fill-opacity="1" fill-rule="evenodd" stroke="#ff7f2a" stroke-dasharray="none" stroke-miterlimit="4" stroke-opacity="1" stroke-width="2.775" opacity="1" rx="21.112" ry="21.112" transform="matrix(0.99921665,-0.03957374,0.03957609,0.99921656,0,0)"/><text id="text4388" x="921.549" y="658.094" fill="#ff7f2a" fill-opacity="1" fill-rule="evenodd" stroke="none" stroke-linecap="butt" stroke-linejoin="miter" stroke-opacity="1" stroke-width="1" font-family="sans-serif" font-size="40" font-style="normal" font-weight="normal" letter-spacing="0" word-spacing="0" xml:space="preserve" style="line-height:125%"><tspan id="tspan4390" x="921.549" y="658.094" fill="#ff7f2a" fill-opacity="1" fill-rule="evenodd" stroke="none" stroke-opacity="1" font-size="35" letter-spacing="-2.75">1-</tspan></text></g></g><g id="g4422" transform="translate(-3.4577433,1.7914165)"><ellipse id="ellipse4392" cx="912.017" cy="637.256" fill="#ffcc80" fill-opacity="1" fill-rule="evenodd" stroke="#ff7f2a" stroke-dasharray="none" stroke-miterlimit="4" stroke-opacity="1" stroke-width="2.775" opacity="1" rx="21.112" ry="21.112" transform="matrix(0.99921665,-0.03957374,0.03957609,0.99921656,0,0)"/><path id="path4394" fill="none" fill-rule="evenodd" stroke="#ff7f2a" stroke-dasharray="none" stroke-linecap="butt" stroke-linejoin="miter" stroke-miterlimit="4" stroke-opacity="1" stroke-width="2.775" d="m 920.79483,585.63431 30.4514,29.26648"/><path id="path4396" fill="none" fill-rule="evenodd" stroke="#ff7f2a" stroke-dasharray="none" stroke-linecap="butt" stroke-linejoin="miter" stroke-miterlimit="4" stroke-opacity="1" stroke-width="2.775" d="m 921.80693,615.49975 29.6075,-29.49682"/></g><path id="path4431" fill="none" fill-rule="evenodd" stroke="#ff7f2a" stroke-dasharray="none" stroke-linecap="butt" stroke-linejoin="miter" stroke-miterlimit="4" stroke-opacity="1" stroke-width="2.775" d="m 1082.1015,603.24532 -44.694,-0.0607"/><path id="path4433" fill="none" fill-rule="evenodd" stroke="#ff7f2a" stroke-dasharray="none" stroke-linecap="butt" stroke-linejoin="miter" stroke-miterlimit="4" stroke-opacity="1" stroke-width="3" d="m 932.91629,710.05691 -0.0782,-87.58528"/><text stroke-opacity="1" style="line-height:125%" id="text4439" x="881.431" y="664.146" fill="#7d6d2d" fill-opacity="1" fill-rule="evenodd" stroke="none" stroke-linecap="butt" stroke-linejoin="miter" stroke-width="1" font-family="sans-serif" font-size="40" font-style="normal" font-weight="normal" letter-spacing="0" word-spacing="0" xml:space="preserve"><tspan id="tspan4441" x="881.431" y="664.146" fill="#7d6d2d" fill-opacity="1" fill-rule="evenodd" stroke="none" stroke-opacity="1">Z<tspan id="tspan4443" baseline-shift="sub" font-size="65%">t</tspan></tspan></text><path id="path4621" fill="none" fill-opacity="1" fill-rule="evenodd" stroke="#ff7f2a" stroke-dasharray="none" stroke-linecap="butt" stroke-linejoin="miter" stroke-miterlimit="4" stroke-opacity="1" stroke-width="3" d="m 786.60152,688.60994 -22.75593,-9.78257 22.34787,-9.74132"/><path id="path7241" fill="none" fill-opacity="1" fill-rule="evenodd" stroke="#ff7f2a" stroke-dasharray="none" stroke-linecap="butt" stroke-linejoin="miter" stroke-miterlimit="4" stroke-opacity="1" stroke-width="3" d="m 922.4868,648.90077 10.08001,-22.62575 9.44755,22.47364"/><path id="path4327" fill="#ff7f2a" fill-opacity="1" fill-rule="evenodd" stroke="none" stroke-linecap="butt" stroke-linejoin="miter" stroke-opacity="1" stroke-width="1" d="m 856.5992,802.47353 0,12 12,-5.91781 z"/><path id="path4327-7" fill="#ff7f2a" fill-opacity="1" fill-rule="evenodd" stroke="none" stroke-linecap="butt" stroke-linejoin="miter" stroke-opacity="1" stroke-width="1" d="m 934.87061,851.38254 0,12 12,-5.91781 z"/><path id="path7273" fill="#ff7f2a" fill-opacity="1" fill-rule="evenodd" stroke="none" stroke-linecap="butt" stroke-linejoin="miter" stroke-opacity="1" stroke-width="1" d="m 856.55477,596.93518 0,12 12,-5.91781 z"/><path id="path7275" fill="none" fill-opacity="1" fill-rule="evenodd" stroke="#ff7f2a" stroke-dasharray="none" stroke-linecap="butt" stroke-linejoin="miter" stroke-miterlimit="4" stroke-opacity="1" stroke-width="3" d="m 1013.863,668.64095 22.7273,9.84893 -22.3762,9.676"/><path id="path7277" fill="#ff7f2a" fill-opacity="1" fill-rule="evenodd" stroke="none" stroke-linecap="butt" stroke-linejoin="miter" stroke-opacity="1" stroke-width="1" d="m 664.20192,679.92063 -11.99999,-0.0167 5.90113,12.00821 z"/><path id="path7279" fill="#ff7f2a" fill-opacity="1" fill-rule="evenodd" stroke="none" stroke-linecap="butt" stroke-linejoin="miter" stroke-opacity="1" stroke-width="1" d="m 745.12931,741.52751 -11.99999,-0.0167 5.90113,12.00821 z"/><path id="path7283" fill="#ff7f2a" fill-opacity="1" fill-rule="evenodd" stroke="none" stroke-linecap="butt" stroke-linejoin="miter" stroke-opacity="1" stroke-width="1" d="m 514.53674,695.4197 0.0468,11.99991 11.97682,-5.96458 z"/><path id="path7285" fill="#ff7f2a" fill-opacity="1" fill-rule="evenodd" stroke="none" stroke-linecap="butt" stroke-linejoin="miter" stroke-opacity="1" stroke-width="1" d="m 598.09953,923.73222 11.99945,-0.11524 -6.0328,-11.94261 z"/><path id="path7287" fill="#ff7f2a" fill-opacity="1" fill-rule="evenodd" stroke="none" stroke-linecap="butt" stroke-linejoin="miter" stroke-opacity="1" stroke-width="1" d="m 1097.3945,521.87327 11.9994,-0.11524 -6.0328,-11.94261 z"/><path id="path7289" fill="#ff7f2a" fill-opacity="1" fill-rule="evenodd" stroke="none" stroke-linecap="butt" stroke-linejoin="miter" stroke-opacity="1" stroke-width="1" d="m 1190.8856,693.68504 0.2344,11.99767 11.8821,-6.15111 z"/></g><text id="text8905" x="190.271" y="715.036" fill="#000" fill-opacity="1" stroke="none" stroke-linecap="butt" stroke-linejoin="miter" stroke-opacity="1" stroke-width="1" font-family="sans-serif" font-size="40" font-style="normal" font-weight="normal" letter-spacing="0" word-spacing="0" xml:space="preserve" style="line-height:125%"><tspan id="tspan8907" x="190.271" y="715.036" dx="1.99" font-size="43.75" letter-spacing="4.37">...</tspan></text><text id="text14201" x="1757.368" y="643.545" fill="#000" fill-opacity="1" stroke="none" stroke-linecap="butt" stroke-linejoin="miter" stroke-opacity="1" stroke-width="1" font-family="sans-serif" font-size="43.565" font-style="normal" font-weight="normal" letter-spacing="0" transform="scale(0.91817803,1.0891134)" word-spacing="0" xml:space="preserve" style="line-height:125%"><tspan id="tspan14203" x="1757.368" y="643.545" dx="2.167" font-size="47.649" letter-spacing="4.759">...</tspan></text></g></g></svg>